<svg id="Layer_5" enable-background="new 0 0 64 64" height="512" viewBox="0 0 64 64" width="512" xmlns="http://www.w3.org/2000/svg"><g><g><g><path d="m28 6c-3.19 0-6.81 4.78-8.99 12h-12.91c4.61-7.22 12.7-12 21.9-12z" fill="#69d6f4"/></g><g><path d="m17 32h-15c0-5.16 1.5-9.96 4.1-14h12.91c-1.23 4.04-2.01 8.84-2.01 14z" fill="#69d6f4"/></g><g><path d="m19.01 46c2.18 7.22 5.8 12 8.99 12-9.2 0-17.29-4.78-21.9-12z" fill="#69d6f4"/></g><g><path d="m19.01 46h-12.91c-2.6-4.04-4.1-8.84-4.1-14h15c0 5.16.78 9.96 2.01 14z" fill="#69d6f4"/></g><g><path d="m34 46 1.16 1.74c-1.64 6.24-4.24 10.26-7.16 10.26-3.19 0-6.81-4.78-8.99-12z" fill="#69d6f4"/></g><g><path d="m36.11 7.29c-2.48.97-4.7 2.43-6.54 4.28-1.82 1.81-3.27 4-4.23 6.43h-.01-6.32c2.18-7.22 5.8-12 8.99-12 2.83 0 5.56.46 8.11 1.29z" fill="#69d6f4"/></g><g><path d="m25.33 18h.01c-.87 2.16-1.34 4.53-1.34 7v.25c0 2.32.42 4.61 1.24 6.75h-8.24c0-5.16.78-9.96 2.01-14z" fill="#69d6f4"/></g><g><path d="m35.16 47.74 4.87 7.31c-3.6 1.88-7.69 2.95-12.03 2.95 2.92 0 5.52-4.02 7.16-10.26z" fill="#69d6f4"/></g><g><path d="m27.19 35.79 6.81 10.21h-14.99c-1.23-4.04-2.01-8.84-2.01-14h8.24c.5 1.33 1.16 2.6 1.95 3.79z" fill="#69d6f4"/></g><g><path d="m35.16 47.74-1.16-1.74-6.81-10.21c-.79-1.19-1.45-2.46-1.95-3.79-.82-2.14-1.24-4.43-1.24-6.75v-.25c0-2.47.47-4.84 1.34-7 .96-2.43 2.41-4.62 4.23-6.43 1.84-1.85 4.06-3.31 6.54-4.28 2.13-.83 4.46-1.29 6.89-1.29 10.49 0 19 8.51 19 19v.25c0 3.75-1.11 7.42-3.19 10.54l-14.26 21.38c-.34.52-.93.83-1.55.83s-1.21-.31-1.55-.83l-1.42-2.12z" fill="#ff826e"/></g><g><path d="m58 25c0 8.28-6.72 15-15 15s-15-6.72-15-15 6.72-15 15-15 15 6.72 15 15z" fill="#ffeaa7"/></g><g><path d="m54 24.23v2.9c0 1.15-.65 2.19-1.67 2.7l-1.02.52c-.8.4-1.31 1.22-1.31 2.11v1.54c0 1.1-.9 2-2 2-.55 0-1.05-.22-1.41-.59-.37-.36-.59-.86-.59-1.41v-2.3c0-1.01-.65-1.92-1.62-2.24-.24-.08-.49-.12-.74-.12-.61 0-1.22.24-1.67.69l-2.35 2.35c-.4.4-.94.62-1.5.62h-.05c-1.14 0-2.07-.92-2.07-2.06v-.05c0-1.2-.56-2.31-1.5-3.02-.5-.37-1.03-.77-1.48-1.1-.64-.49-1.02-1.24-1.02-2.05v-.11c0-1.45 1.16-2.61 2.59-2.61h.08c1.49 0 2.92-.59 3.98-1.65l.36-.36c.65-.65 1.17-1.43 1.51-2.3l.57-1.43c.54-1.36 1.87-2.26 3.33-2.26h.05c.99 0 1.92.38 2.61 1.07 1.37 1.38 3.77 3.77 5.35 5.36 1.01 1.01 1.57 2.37 1.57 3.8z" fill="#b4dd7f"/></g></g><g><path d="m43 5c-2.43 0-4.749.457-6.905 1.254-2.624-.824-5.344-1.254-8.095-1.254-14.888 0-27 12.112-27 27s12.112 27 27 27c4.037 0 8.054-.929 11.683-2.673l.931 1.396c.533.799 1.425 1.277 2.386 1.277s1.853-.478 2.387-1.277l14.254-21.382c2.197-3.296 3.359-7.132 3.359-11.094v-.247c0-11.028-8.972-20-20-20zm-9.776 2.57c-3.775 2.126-6.791 5.437-8.542 9.43h-4.279c2.124-6.15 5.242-10 7.597-10 1.762 0 3.508.203 5.224.57zm-9.38 23.43h-5.831c.089-4.443.759-8.518 1.758-12h4.151c-.597 1.895-.922 3.91-.922 6v.247c0 1.966.288 3.9.844 5.753zm4.156 26c-2.355 0-5.473-3.85-7.598-10h13.063l.611.916c-1.549 5.614-3.857 9.084-6.076 9.084zm-8.229-12c-.999-3.482-1.669-7.557-1.758-12h6.563c.488 1.159 1.076 2.28 1.783 3.341l5.773 8.659zm-16.746-12h12.988c.085 4.216.698 8.33 1.686 12h-11.045c-2.153-3.523-3.455-7.619-3.629-12zm0-2c.173-4.381 1.475-8.477 3.629-12h11.045c-.987 3.67-1.601 7.784-1.686 12zm20.341-23.563c-1.997 2.122-3.772 5.493-5.079 9.563h-10.273c3.679-4.891 9.111-8.388 15.352-9.563zm-15.352 39.563h10.274c1.307 4.07 3.081 7.441 5.079 9.563-6.242-1.175-11.674-4.672-15.353-9.563zm24.233 9.637c1.248-1.506 2.353-3.712 3.271-6.557l3.046 4.569c-2.026.95-4.136 1.615-6.317 1.988zm28.753-31.39c0 3.566-1.046 7.018-3.023 9.984l-14.254 21.382c-.322.484-1.123.484-1.445 0l-14.255-21.382c-1.977-2.966-3.023-6.418-3.023-9.984v-.247c0-9.925 8.075-18 18-18s18 8.075 18 18z"/><path d="m43 9c-8.822 0-16 7.178-16 16s7.178 16 16 16 16-7.178 16-16-7.178-16-16-16zm0 30c-7.72 0-14-6.28-14-14s6.28-14 14-14 14 6.28 14 14-6.28 14-14 14z"/><path d="m44.425 13c-1.891 0-3.564 1.134-4.263 2.89l-.571 1.434h-.001c-.294.74-.729 1.4-1.292 1.963l-.354.355c-.876.876-2.04 1.358-3.352 1.358-1.981 0-3.592 1.619-3.592 3.608v.116c0 1.113.531 2.176 1.421 2.842l1.476 1.106c.701.525 1.103 1.333 1.103 2.266 0 .819.319 1.588.898 2.166.579.579 1.347.896 2.217.896h.006c.822 0 1.626-.333 2.207-.914l2.347-2.347c.367-.367.901-.493 1.394-.329.557.186.931.705.931 1.293v2.297c0 1.654 1.346 3 3 3s3-1.346 3-3v-1.54c0-.52.288-.986.753-1.218l1.025-.513c1.37-.686 2.222-2.063 2.222-3.595v-2.904c0-1.705-.663-3.306-1.866-4.51l-5.35-5.352c-.882-.883-2.057-1.368-3.359-1.368zm8.575 11.229v2.904c0 .77-.428 1.462-1.116 1.806l-1.025.513c-1.147.574-1.859 1.726-1.859 3.008v1.54c0 .552-.448 1-1 1s-1-.448-1-1v-2.297c0-1.449-.924-2.731-2.299-3.19-.353-.117-.714-.175-1.07-.175-.875 0-1.727.344-2.37.987l-2.347 2.347c-.209.208-.498.328-.851.328 0 0-.001 0-.002 0-.283 0-.55-.11-.75-.311-.201-.2-.311-.467-.311-.8 0-1.497-.712-2.924-1.904-3.817l-1.476-1.107c-.394-.295-.62-.748-.62-1.241v-.116c0-.887.714-1.608 1.667-1.608 1.771 0 3.438-.69 4.691-1.943l.354-.355c.756-.756 1.34-1.643 1.735-2.638l.571-1.435c.396-.989 1.339-1.629 2.455-1.629.72 0 1.394.277 1.897.781l5.35 5.353c.825.825 1.28 1.925 1.28 3.095z"/><path d="m46 45h2v2h-2z"/><path d="m42 45h2v2h-2z"/><path d="m38 45h2v2h-2z"/><path d="m6.895 22.842c-.277.642-.528 1.299-.743 1.952l1.898.627c.197-.597.426-1.197.681-1.784z"/><path d="m5.212 28.865 1.982.271c.086-.634.202-1.265.344-1.876l-1.949-.451c-.155.67-.282 1.361-.377 2.056z"/></g></g></svg>