<svg id="Layer_5" enable-background="new 0 0 64 64" height="512" viewBox="0 0 64 64" width="512" xmlns="http://www.w3.org/2000/svg"><g><g><g><path d="m62 58c0-2.21-1.79-4-4-4h-4v-24-8h4c2.21 0 4 1.79 4 4z" fill="#f0d0b4"/></g><g><path d="m58 54h-4v-24h-52v32h56c1.1 0 2.1-.45 2.83-1.17.72-.73 1.17-1.73 1.17-2.83 0-2.21-1.79-4-4-4z" fill="#e6e9ed"/></g><g><path d="m22 50v6c0 1.1-.9 2-2 2h-12c-1.1 0-2-.9-2-2v-6c0-1.1.9-2 2-2h12c1.1 0 2 .9 2 2z" fill="#fcd770"/></g><g><path d="m48 23c0 1.72-.21 3.4-.6 5h-.02-3.02c-.86 0-1.67.39-2.21 1.06l-2.3 2.88c-.54.67-1.35 1.06-2.21 1.06h-3.47c-.75 0-1.47-.3-2-.83l-3.63-3.63c-.99-.99-2.32-1.54-3.71-1.54-.78 0-1.49.32-2 .83s-.83 1.22-.83 2c0 .75.3 1.47.83 2l2.07 2.07c.7.7 1.1 1.66 1.1 2.66 0 .74-.22 1.45-.6 2.04-.39.6-.95 1.09-1.63 1.39l-5.12 2.28c-4.32-1.87-7.89-5.15-10.12-9.27h1.47c1.1 0 2-.9 2-2v-2c0-1.1.9-2 2-2h1c1.1 0 2-.9 2-2 0-.55-.22-1.05-.59-1.41-.36-.37-.86-.59-1.41-.59h-1c-1.1 0-2-.9-2-2 0-.55.22-1.05.59-1.41.36-.37.86-.59 1.41-.59h5c1.1 0 2-.9 2-2 0-.55-.22-1.05-.59-1.41-.36-.37-.86-.59-1.41-.59h-4.36c-.42 0-.82-.13-1.16-.37l-4.14-2.96-.01-.01c3.73-5.81 10.25-9.66 17.67-9.66 3.21 0 6.25.72 8.98 2.01l-.01.02-2.21 2.21c-1.13 1.13-2.65 1.76-4.25 1.76h-4.51c-1.1 0-2 .9-2 2 0 .55.22 1.05.59 1.41.36.37.86.59 1.41.59h6c1.1 0 2 .9 2 2 0 .55.22 1.05.59 1.41.36.37.86.59 1.41.59h2c1.1 0 2 .9 2 2v2c0 1.1.9 2 2 2h6.95.02c.02.33.03.66.03 1z" fill="#69d6f4"/></g><g><path d="m47.97 22h-.02-6.95c-1.1 0-2-.9-2-2v-2c0-1.1-.9-2-2-2h-2c-.55 0-1.05-.22-1.41-.59-.37-.36-.59-.86-.59-1.41 0-1.1-.9-2-2-2h-6c-.55 0-1.05-.22-1.41-.59-.37-.36-.59-.86-.59-1.41 0-1.1.9-2 2-2h4.51c1.6 0 3.12-.63 4.25-1.76l2.21-2.21.01-.02c6.82 3.23 11.62 10.03 11.99 17.99z" fill="#b4dd7f"/></g><g><path d="m20.41 15.59c.37.36.59.86.59 1.41 0 1.1-.9 2-2 2h-5c-.55 0-1.05.22-1.41.59-.37.36-.59.86-.59 1.41 0 1.1.9 2 2 2h1c.55 0 1.05.22 1.41.59.37.36.59.86.59 1.41 0 1.1-.9 2-2 2h-1c-1.1 0-2 .9-2 2v2c0 1.1-.9 2-2 2h-1.47c-.52-.96-.97-1.96-1.33-3-.78-2.19-1.2-4.54-1.2-7 0-4.18 1.22-8.07 3.33-11.34l.01.01 4.14 2.96c.34.24.74.37 1.16.37h4.36c.55 0 1.05.22 1.41.59z" fill="#b4dd7f"/></g><g><path d="m44.36 28h3.02.02c-.17.68-.36 1.35-.6 2-2.88 8.16-10.66 14-19.8 14-2.97 0-5.79-.61-8.35-1.73l5.12-2.28c.68-.3 1.24-.79 1.63-1.39.38-.59.6-1.3.6-2.04 0-1-.4-1.96-1.1-2.66l-2.07-2.07c-.53-.53-.83-1.25-.83-2 0-.78.32-1.49.83-2s1.22-.83 2-.83c1.39 0 2.72.55 3.71 1.54l3.63 3.63c.53.53 1.25.83 2 .83h3.47c.86 0 1.67-.39 2.21-1.06l2.3-2.88c.54-.67 1.35-1.06 2.21-1.06z" fill="#b4dd7f"/></g></g><g><path d="m58 21h-5v8h-4.839c.543-1.909.839-3.92.839-6 0-12.131-9.869-22-22-22s-22 9.869-22 22c0 2.08.296 4.091.839 6h-4.839v34h57c2.757 0 5-2.243 5-5v-32c0-2.757-2.243-5-5-5zm-32.394 12.192-2.07-2.07c-.346-.346-.536-.805-.536-1.293 0-1.009.82-1.829 1.829-1.829 1.133 0 2.199.441 3 1.243l3.636 3.636c.723.723 1.684 1.121 2.706 1.121h3.469c1.169 0 2.259-.524 2.989-1.437l2.302-2.877c.35-.436.87-.686 1.428-.686h1.718c-2.554 8.105-10.139 14-19.077 14-1.97 0-3.87-.297-5.669-.831l2.843-1.264c1.717-.762 2.826-2.469 2.826-4.348 0-1.271-.495-2.466-1.394-3.365zm21.293-12.192h-5.899c-.551 0-1-.449-1-1v-2c0-1.654-1.346-3-3-3h-2c-.551 0-1-.449-1-1 0-1.654-1.346-3-3-3h-6c-.551 0-1-.449-1-1s.449-1 1-1h4.515c1.87 0 3.627-.728 4.95-2.05l1.704-1.704c5.862 3.04 10.044 8.884 10.73 15.754zm-19.899-18c2.547 0 4.975.497 7.217 1.369l-1.167 1.167c-.944.944-2.2 1.464-3.535 1.464h-4.515c-1.654 0-3 1.346-3 3s1.346 3 3 3h6c.551 0 1 .449 1 1 0 1.654 1.346 3 3 3h2c.551 0 1 .449 1 1v2c0 1.654 1.346 3 3 3h6c0 1.37-.14 2.707-.403 4h-2.237c-1.169 0-2.259.524-2.989 1.437l-2.302 2.877c-.35.436-.87.686-1.428.686h-3.469c-.488 0-.947-.19-1.293-.536l-3.636-3.636c-1.18-1.179-2.747-1.828-4.414-1.828-2.112 0-3.829 1.717-3.829 3.829 0 1.022.398 1.984 1.122 2.707l2.07 2.07c.521.521.808 1.214.808 1.951 0 1.089-.643 2.079-1.639 2.521l-4.687 2.083c-3.419-1.574-6.324-4.074-8.378-7.191 1.514-.151 2.704-1.417 2.704-2.97v-2c0-.551.449-1 1-1h1c1.654 0 3-1.346 3-3s-1.346-3-3-3h-1c-.551 0-1-.449-1-1s.449-1 1-1h5c1.654 0 3-1.346 3-3s-1.346-3-3-3h-4.359c-.209 0-.411-.064-.582-.187l-3.341-2.386c3.63-5.09 9.568-8.427 16.282-8.427zm-17.363 10.113 3.26 2.328c.513.366 1.116.559 1.744.559h4.359c.551 0 1 .449 1 1s-.449 1-1 1h-5c-1.654 0-3 1.346-3 3s1.346 3 3 3h1c.551 0 1 .449 1 1s-.449 1-1 1h-1c-1.654 0-3 1.346-3 3v2c0 .551-.449 1-1 1h-.836c-1.373-2.709-2.164-5.761-2.164-9 0-3.597.968-6.967 2.637-9.887zm48.363 47.887h-55v-30h3.512c3.208 8.186 11.179 14 20.488 14s17.28-5.814 20.488-14h5.512v24h5c1.654 0 3 1.346 3 3s-1.346 3-3 3zm3-6.998c-.836-.628-1.875-1.002-3-1.002h-3v-30h3c1.654 0 3 1.346 3 3z"/><path d="m37 49h14v2h-14z"/><path d="m37 53h14v2h-14z"/><path d="m37 57h2v2h-2z"/><path d="m49 57h2v2h-2z"/><path d="m41 57h2v2h-2z"/><path d="m45 57h2v2h-2z"/><path d="m20 47h-12c-1.654 0-3 1.346-3 3v6c0 1.654 1.346 3 3 3h12c1.654 0 3-1.346 3-3v-6c0-1.654-1.346-3-3-3zm1 9c0 .551-.449 1-1 1h-12c-.551 0-1-.449-1-1v-6c0-.551.449-1 1-1h12c.551 0 1 .449 1 1z"/><path d="m57 25h2v2h-2z"/><path d="m57 29h2v2h-2z"/><path d="m57 33h2v2h-2z"/></g></g></svg>